<svg width="1929" height="2073" viewBox="0 0 1929 2073" fill="none" xmlns="http://www.w3.org/2000/svg">
<mask id="mask0_17_3" style="mask-type:alpha" maskUnits="userSpaceOnUse" x="0" y="0" width="1929" height="2073">
<rect width="1929" height="2073" fill="#050507"/>
</mask>
<g mask="url(#mask0_17_3)">
<mask id="mask1_17_3" style="mask-type:alpha" maskUnits="userSpaceOnUse" x="0" y="0" width="1929" height="2073">
<rect width="1928.7" height="2073" fill="#D9D9D9"/>
</mask>
<g mask="url(#mask1_17_3)">
<rect x="1930.71" y="2153.95" width="1930.71" height="2153.95" transform="rotate(-180 1930.71 2153.95)" fill="url(#paint0_linear_17_3)"/>
<rect x="-527.929" y="-379.713" width="1189.6" height="841.005" fill="url(#paint1_radial_17_3)" fill-opacity="0.3"/>
<rect x="717.983" y="411.523" width="1005.58" height="507.853" transform="rotate(-180 717.983 411.523)" fill="url(#paint2_radial_17_3)" fill-opacity="0.1"/>
<rect width="1189.6" height="841.005" transform="matrix(-1 0 0 1 2457.63 -379.713)" fill="url(#paint3_radial_17_3)" fill-opacity="0.3"/>
<rect width="1005.58" height="507.853" transform="matrix(1 -8.83032e-08 -8.65511e-08 -1 1211.72 411.523)" fill="url(#paint4_radial_17_3)" fill-opacity="0.1"/>
<path d="M47.2677 561.859C47.2677 586.816 26.1457 607.119 -4.19617e-05 607.119C-26.1458 607.119 -47.2678 586.816 -47.2678 561.859C-47.2678 536.903 -26.1458 516.6 -4.19617e-05 516.6C26.1457 516.6 47.2677 536.903 47.2677 561.859Z" stroke="white" stroke-opacity="0.17" stroke-width="2"/>
<ellipse cx="0.502684" cy="561.859" rx="23.6311" ry="23.1297" fill="#6102FE"/>
<ellipse cx="58.5881" cy="271.064" rx="8.30926" ry="7.96352" fill="white" fill-opacity="0.17"/>
<ellipse cx="58.5881" cy="316.131" rx="8.30926" ry="7.96352" fill="white" fill-opacity="0.17"/>
<ellipse cx="109.105" cy="271.064" rx="8.30926" ry="7.96352" fill="white" fill-opacity="0.17"/>
<ellipse cx="109.105" cy="316.131" rx="8.30926" ry="7.96352" fill="white" fill-opacity="0.17"/>
<ellipse cx="159.622" cy="271.064" rx="8.30926" ry="7.96352" fill="white" fill-opacity="0.17"/>
<ellipse cx="159.622" cy="316.131" rx="8.30926" ry="7.96352" fill="white" fill-opacity="0.17"/>
<path fill-rule="evenodd" clip-rule="evenodd" d="M-3.03351e-05 360.438L153.336 360.438L153.336 360.402C190.292 360.402 220.227 330.849 220.227 294.422C220.227 258.165 190.571 228.718 153.854 228.444L153.854 228.478L-3.35568e-05 228.478L-3.33744e-05 226.478L153.336 226.478L153.336 226.442C191.371 226.442 222.227 256.865 222.227 294.422C222.227 331.808 191.65 362.126 153.854 362.4L153.854 362.438L-3.05176e-05 362.438L-3.03351e-05 360.438Z" fill="white" fill-opacity="0.17"/>
<ellipse cx="109.105" cy="227.924" rx="12.5697" ry="12.0467" fill="#02FF8A"/>
<path d="M1872.39 561.859C1872.39 586.816 1851.27 607.119 1825.13 607.119C1798.98 607.119 1777.86 586.816 1777.86 561.859C1777.86 536.903 1798.98 516.6 1825.13 516.6C1851.27 516.6 1872.39 536.903 1872.39 561.859Z" stroke="white" stroke-opacity="0.17" stroke-width="2"/>
<ellipse cx="1824.62" cy="561.859" rx="15.5865" ry="15.4198" fill="white" fill-opacity="0.17"/>
<ellipse cx="1415.85" cy="57.5616" rx="21.1172" ry="20.7204" fill="#6102FE"/>
<ellipse cx="1790.94" cy="140.706" rx="4.02232" ry="3.85495" fill="white" fill-opacity="0.17"/>
<ellipse cx="1790.94" cy="181.183" rx="4.02232" ry="3.85495" fill="white" fill-opacity="0.17"/>
<ellipse cx="1790.94" cy="221.66" rx="4.02232" ry="3.85495" fill="white" fill-opacity="0.17"/>
<ellipse cx="1825.13" cy="140.706" rx="4.02232" ry="3.85495" fill="white" fill-opacity="0.17"/>
<ellipse cx="1825.13" cy="181.183" rx="4.02232" ry="3.85495" fill="white" fill-opacity="0.17"/>
<ellipse cx="1825.13" cy="221.66" rx="4.02232" ry="3.85495" fill="white" fill-opacity="0.17"/>
<ellipse cx="1859.32" cy="140.706" rx="4.02232" ry="3.85495" fill="white" fill-opacity="0.17"/>
<ellipse cx="1859.32" cy="181.183" rx="4.02232" ry="3.85495" fill="white" fill-opacity="0.17"/>
<ellipse cx="1859.32" cy="221.66" rx="4.02232" ry="3.85495" fill="white" fill-opacity="0.17"/>
<rect x="1807.03" y="637.031" width="36.2008" height="11.5648" rx="3" fill="#02FF8A"/>
<path d="M1451.06 57.5562C1451.06 76.3917 1435.11 91.7327 1415.35 91.7327C1395.59 91.7327 1379.65 76.3917 1379.65 57.5562C1379.65 38.7208 1395.59 23.3798 1415.35 23.3798C1435.11 23.3798 1451.06 38.7208 1451.06 57.5562Z" stroke="white" stroke-opacity="0.17" stroke-width="2"/>
</g>
</g>
<defs>
<linearGradient id="paint0_linear_17_3" x1="2896.07" y1="2153.95" x2="2896.07" y2="4307.91" gradientUnits="userSpaceOnUse">
<stop offset="0.175" stop-color="#08080B"/>
<stop offset="1"/>
</linearGradient>
<radialGradient id="paint1_radial_17_3" cx="0" cy="0" r="1" gradientUnits="userSpaceOnUse" gradientTransform="translate(66.8712 40.7898) rotate(90) scale(420.502 594.8)">
<stop stop-color="#6102FE"/>
<stop offset="1" stop-opacity="0"/>
</radialGradient>
<radialGradient id="paint2_radial_17_3" cx="0" cy="0" r="1" gradientUnits="userSpaceOnUse" gradientTransform="translate(1220.77 665.449) rotate(90) scale(253.927 502.789)">
<stop stop-color="#02FF8A"/>
<stop offset="1" stop-opacity="0"/>
</radialGradient>
<radialGradient id="paint3_radial_17_3" cx="0" cy="0" r="1" gradientUnits="userSpaceOnUse" gradientTransform="translate(594.8 420.502) rotate(90) scale(420.502 594.8)">
<stop stop-color="#6102FE"/>
<stop offset="1" stop-opacity="0"/>
</radialGradient>
<radialGradient id="paint4_radial_17_3" cx="0" cy="0" r="1" gradientUnits="userSpaceOnUse" gradientTransform="translate(502.789 253.927) rotate(90) scale(253.927 502.789)">
<stop stop-color="#02FF8A"/>
<stop offset="1" stop-opacity="0"/>
</radialGradient>
</defs>
</svg>